# xmcd CD database file
#
# Track frame offsets:
#	150
#	15332
#	31675
#	40422
#	53347
#	62542
#	71117
#	79652
#	90365
#
# Disc length: 1363 seconds
#
# Revision: 0
# Processed by: cddbd v1.5.1PL0 Copyright (c) Steve Scherf et al.
# Submitted via: CDex 1.50beta9
#
DISCID=5c055109
DTITLE=Reine River - Buckin' Heart
DYEAR=1999
DGENRE=Country
TTITLE0=9 Sorrel Horses
TTITLE1=The Cards Of Nevada
TTITLE2=The Jingle In Your Walk
TTITLE3=Right About Now
TTITLE4=In The Bunkhouse
TTITLE5=Leavin' The Chutes
TTITLE6=Angry Coyote
TTITLE7=In A Faraway Place
TTITLE8=Passin' Time
EXTD=YEAR: 1999
EXTT0=
EXTT1=
EXTT2=
EXTT3=
EXTT4=
EXTT5=
EXTT6=
EXTT7=
EXTT8=
PLAYORDER=
